<svg width="1024" height="1024" viewBox="0 0 1024 1024" fill="none" xmlns="http://www.w3.org/2000/svg">
<g clip-path="url(#clip0_2229_80)">
<mask id="path-1-outside-1_2229_80" maskUnits="userSpaceOnUse" x="115.974" y="6.73737" width="763" height="1004" fill="black">
<rect fill="white" x="115.974" y="6.73737" width="763" height="1004"/>
<path d="M785.526 32.4796C802.322 29.2026 819.342 36.9725 827.868 51.8096L832.684 60.1924C843.257 78.5904 847.702 99.8742 845.379 120.966L828.033 278.422C827.173 286.225 827.235 294.102 828.218 301.891L853.369 501.223C855.104 514.975 853.961 528.938 850.012 542.226L812.337 669.017C808.361 682.396 801.664 694.677 792.79 705.156C810.961 715.509 822.599 735.527 821.332 757.657C820.926 764.744 819.192 771.693 816.22 778.14L783.677 848.745C781.449 853.577 778.739 858.172 775.589 862.459L738.631 912.747C731.436 922.536 722.081 930.535 711.293 936.12L630.917 977.731C617.466 984.694 602.297 987.643 587.217 986.229L500.982 978.138C493.597 977.445 486.345 975.715 479.442 972.999L388.439 937.2C380.04 933.896 372.27 929.177 365.465 923.248L308.944 874.005C306.08 871.51 303.4 868.811 300.925 865.931L220.688 772.565L180.877 717.76C173.721 707.909 170.314 695.827 171.27 683.689C172.949 662.366 187.447 645.21 206.51 639.031L167.77 551.49C162.13 538.745 159.217 524.96 159.217 511.023V290.167L140.576 120.966C138.252 99.8743 142.698 78.5903 153.27 60.1924L158.088 51.8096C166.614 36.9728 183.633 29.2028 200.428 32.4796L225.719 37.4141C248.037 41.7687 268.205 53.5996 282.896 70.9561L385.298 191.934C389.858 197.321 396.558 200.428 403.616 200.428H582.339C589.397 200.428 596.098 197.321 600.658 191.934L703.058 70.9561C717.75 53.5995 737.918 41.7687 760.237 37.4141L785.526 32.4796Z"/>
</mask>
<path d="M785.526 32.4796L780.93 8.92371L780.93 8.9238L785.526 32.4796ZM827.868 51.8096L848.678 39.8532L848.677 39.8519L827.868 51.8096ZM832.684 60.1924L811.875 72.1488L811.875 72.1501L832.684 60.1924ZM845.379 120.966L821.523 118.338V118.338L845.379 120.966ZM828.033 278.422L851.889 281.05L851.889 281.05L828.033 278.422ZM828.218 301.891L804.406 304.895V304.895L828.218 301.891ZM853.369 501.223L877.18 498.218V498.218L853.369 501.223ZM850.012 542.226L827.007 535.389V535.389L850.012 542.226ZM812.337 669.017L835.342 675.853V675.853L812.337 669.017ZM792.79 705.156L774.475 689.646L755.797 711.702L780.909 726.009L792.79 705.156ZM821.332 757.657L845.293 759.029V759.029L821.332 757.657ZM816.22 778.14L794.424 768.093V768.093L816.22 778.14ZM783.677 848.745L805.473 858.792V858.792L783.677 848.745ZM775.589 862.459L756.25 848.246H756.25L775.589 862.459ZM738.631 912.747L757.97 926.96H757.97L738.631 912.747ZM711.293 936.12L722.327 957.433L722.327 957.433L711.293 936.12ZM630.917 977.731L619.883 956.417V956.417L630.917 977.731ZM587.217 986.229L589.459 962.334L589.458 962.333L587.217 986.229ZM500.982 978.138L498.74 1002.03L498.74 1002.03L500.982 978.138ZM479.442 972.999L470.656 995.333H470.656L479.442 972.999ZM388.439 937.2L379.653 959.534L379.653 959.534L388.439 937.2ZM365.465 923.248L381.23 905.153L381.23 905.153L365.465 923.248ZM308.944 874.005L293.178 892.1L293.179 892.1L308.944 874.005ZM300.925 865.931L282.723 881.573L282.723 881.573L300.925 865.931ZM220.688 772.565L201.271 786.671L201.847 787.464L202.486 788.208L220.688 772.565ZM180.877 717.76L161.459 731.865L161.459 731.865L180.877 717.76ZM171.27 683.689L147.344 681.804L147.344 681.804L171.27 683.689ZM206.51 639.031L213.91 661.862L239.226 653.656L228.457 629.319L206.51 639.031ZM167.77 551.49L189.717 541.778L189.717 541.778L167.77 551.49ZM159.217 511.023H135.217V511.023L159.217 511.023ZM159.217 290.167H183.217V288.849L183.072 287.539L159.217 290.167ZM140.576 120.966L116.72 123.594L116.72 123.594L140.576 120.966ZM153.27 60.1924L132.462 48.2342L132.461 48.2348L153.27 60.1924ZM158.088 51.8096L178.896 63.7678L178.897 63.7674L158.088 51.8096ZM200.428 32.4796L205.025 8.92377L205.024 8.92366L200.428 32.4796ZM225.719 37.4141L221.122 60.9699L221.123 60.97L225.719 37.4141ZM282.896 70.9561L264.578 86.4618L264.578 86.4619L282.896 70.9561ZM385.298 191.934L403.616 176.428L403.616 176.428L385.298 191.934ZM403.616 200.428L403.616 224.428H403.616V200.428ZM582.339 200.428V224.428V200.428ZM600.658 191.934L618.977 207.439V207.439L600.658 191.934ZM703.058 70.9561L684.74 55.4504V55.4504L703.058 70.9561ZM760.237 37.4141L764.833 60.97L764.833 60.9699L760.237 37.4141ZM785.526 32.4796L790.122 56.0354C796.841 54.7245 803.649 57.8328 807.059 63.7673L827.868 51.8096L848.677 39.8519C835.035 16.1123 807.803 3.68067 780.93 8.92371L785.526 32.4796ZM827.868 51.8096L807.058 63.766L811.875 72.1488L832.684 60.1924L853.494 48.2361L848.678 39.8532L827.868 51.8096ZM832.684 60.1924L811.875 72.1501C819.91 86.1325 823.289 102.308 821.523 118.338L845.379 120.966L869.234 123.594C872.115 97.4404 866.603 71.0484 853.493 48.2348L832.684 60.1924ZM845.379 120.966L821.523 118.338L804.177 275.794L828.033 278.422L851.889 281.05L869.234 123.594L845.379 120.966ZM828.033 278.422L804.177 275.794C803.112 285.468 803.188 295.236 804.406 304.895L828.218 301.891L852.029 298.886C851.282 292.968 851.235 286.982 851.889 281.05L828.033 278.422ZM828.218 301.891L804.406 304.895L829.558 504.227L853.369 501.223L877.18 498.218L852.029 298.886L828.218 301.891ZM853.369 501.223L829.558 504.227C830.876 514.678 830.008 525.291 827.007 535.389L850.012 542.226L873.018 549.062C877.914 532.586 879.332 515.272 877.18 498.218L853.369 501.223ZM850.012 542.226L827.007 535.389L789.331 662.181L812.337 669.017L835.342 675.853L873.018 549.062L850.012 542.226ZM812.337 669.017L789.331 662.18C786.31 672.346 781.222 681.679 774.475 689.646L792.79 705.156L811.105 720.666C822.107 707.674 830.412 692.446 835.342 675.853L812.337 669.017ZM792.79 705.156L780.909 726.009C791.426 732.001 798.1 743.558 797.371 756.285L821.332 757.657L845.293 759.029C847.098 727.495 830.496 699.017 804.671 684.303L792.79 705.156ZM821.332 757.657L797.371 756.285C797.137 760.371 796.137 764.377 794.424 768.093L816.22 778.14L838.017 788.186C842.247 779.009 844.715 769.118 845.293 759.029L821.332 757.657ZM816.22 778.14L794.424 768.093L761.88 838.699L783.677 848.745L805.473 858.792L838.017 788.186L816.22 778.14ZM783.677 848.745L761.88 838.699C760.33 842.062 758.444 845.261 756.25 848.246L775.589 862.459L794.928 876.672C799.035 871.082 802.568 865.092 805.473 858.792L783.677 848.745ZM775.589 862.459L756.25 848.246L719.292 898.534L738.631 912.747L757.97 926.96L794.928 876.672L775.589 862.459ZM738.631 912.747L719.292 898.534C714.283 905.35 707.769 910.919 700.259 914.807L711.293 936.12L722.327 957.433C736.393 950.151 748.59 939.722 757.97 926.96L738.631 912.747ZM711.293 936.12L700.259 914.807L619.883 956.417L630.917 977.731L641.951 999.044L722.327 957.433L711.293 936.12ZM630.917 977.731L619.883 956.417C610.519 961.265 599.958 963.319 589.459 962.334L587.217 986.229L584.975 1010.12C604.635 1011.97 624.413 1008.12 641.951 999.044L630.917 977.731ZM587.217 986.229L589.458 962.333L503.224 954.243L500.982 978.138L498.74 1002.03L584.975 1010.12L587.217 986.229ZM500.982 978.138L503.224 954.243C498.083 953.76 493.035 952.556 488.228 950.665L479.442 972.999L470.656 995.333C479.656 998.873 489.11 1001.13 498.74 1002.03L500.982 978.138ZM479.442 972.999L488.228 950.665L397.225 914.866L388.439 937.2L379.653 959.534L470.656 995.333L479.442 972.999ZM388.439 937.2L397.225 914.866C391.378 912.566 385.968 909.281 381.23 905.153L365.465 923.248L349.699 941.344C358.571 949.073 368.702 955.226 379.653 959.534L388.439 937.2ZM365.465 923.248L381.23 905.153L324.71 855.909L308.944 874.005L293.179 892.1L349.699 941.344L365.465 923.248ZM308.944 874.005L324.71 855.91C322.716 854.173 320.85 852.294 319.127 850.288L300.925 865.931L282.723 881.573C285.95 885.329 289.445 888.847 293.178 892.1L308.944 874.005ZM300.925 865.931L319.127 850.288L238.89 756.923L220.688 772.565L202.486 788.208L282.723 881.573L300.925 865.931ZM220.688 772.565L240.106 758.46L200.294 703.655L180.877 717.76L161.459 731.865L201.271 786.671L220.688 772.565ZM180.877 717.76L200.294 703.655C196.497 698.427 194.689 692.015 195.196 685.573L171.27 683.689L147.344 681.804C145.94 699.639 150.945 717.39 161.459 731.865L180.877 717.76ZM171.27 683.689L195.196 685.573C196.084 674.299 203.733 665.161 213.91 661.862L206.51 639.031L199.109 616.201C171.161 625.26 149.815 650.434 147.344 681.804L171.27 683.689ZM206.51 639.031L228.457 629.319L189.717 541.778L167.77 551.49L145.823 561.202L184.562 648.743L206.51 639.031ZM167.77 551.49L189.717 541.778C185.431 532.092 183.217 521.616 183.217 511.022L159.217 511.023L135.217 511.023C135.217 528.305 138.829 545.398 145.823 561.203L167.77 551.49ZM159.217 511.023H183.217V290.167H159.217H135.217V511.023H159.217ZM159.217 290.167L183.072 287.539L164.432 118.338L140.576 120.966L116.72 123.594L135.361 292.795L159.217 290.167ZM140.576 120.966L164.432 118.338C162.666 102.308 166.045 86.1324 174.079 72.1501L153.27 60.1924L132.461 48.2348C119.352 71.0483 113.839 97.4404 116.72 123.594L140.576 120.966ZM153.27 60.1924L174.079 72.1507L178.896 63.7678L158.088 51.8096L137.279 39.8514L132.462 48.2342L153.27 60.1924ZM158.088 51.8096L178.897 63.7674C182.307 57.8327 189.115 54.7248 195.833 56.0354L200.428 32.4796L205.024 8.92366C178.151 3.68091 150.92 16.1129 137.279 39.8518L158.088 51.8096ZM200.428 32.4796L195.832 56.0353L221.122 60.9699L225.719 37.4141L230.315 13.8583L205.025 8.92377L200.428 32.4796ZM225.719 37.4141L221.123 60.97C238.085 64.2794 253.412 73.2709 264.578 86.4618L282.896 70.9561L301.215 55.4504C282.998 33.9283 257.99 19.2579 230.314 13.8583L225.719 37.4141ZM282.896 70.9561L264.578 86.4619L366.979 207.439L385.298 191.934L403.616 176.428L301.215 55.4503L282.896 70.9561ZM385.298 191.934L366.979 207.439C376.099 218.214 389.5 224.428 403.616 224.428L403.616 200.428L403.616 176.428L403.616 176.428L385.298 191.934ZM403.616 200.428V224.428H582.339V200.428V176.428H403.616V200.428ZM582.339 200.428V224.428C596.454 224.428 609.856 218.215 618.977 207.439L600.658 191.934L582.339 176.428L582.339 176.428V200.428ZM600.658 191.934L618.977 207.439L721.377 86.4618L703.058 70.9561L684.74 55.4504L582.339 176.428L600.658 191.934ZM703.058 70.9561L721.377 86.4618C732.542 73.2711 747.87 64.2795 764.833 60.97L760.237 37.4141L755.641 13.8583C727.966 19.2578 702.957 33.9279 684.74 55.4504L703.058 70.9561ZM760.237 37.4141L764.833 60.9699L790.122 56.0353L785.526 32.4796L780.93 8.9238L755.641 13.8584L760.237 37.4141Z" fill="#2C2A26" mask="url(#path-1-outside-1_2229_80)"/>
<path d="M227.982 636.884C199.245 633.645 173.54 654.859 171.27 683.689C170.314 695.828 173.721 707.909 180.877 717.76L220.688 772.566L300.925 865.931C303.4 868.812 306.08 871.51 308.944 874.005L365.464 923.248C372.269 929.177 380.04 933.896 388.44 937.201L479.442 972.999C486.345 975.715 493.596 977.445 500.982 978.138L587.217 986.229C602.297 987.644 617.466 984.694 630.916 977.73L711.292 936.12C722.081 930.535 731.436 922.537 738.63 912.747L775.589 862.459C778.739 858.172 781.449 853.577 783.676 848.745L816.22 778.14C819.192 771.693 820.926 764.745 821.332 757.658C823.052 727.62 800.999 701.475 771.102 698.105L227.982 636.884Z" fill="#1F201D"/>
<path d="M460.723 859.293C455.102 848.932 463.785 836.619 475.432 838.435L521.415 845.609L544.371 852.203C552.896 854.651 560.719 859.083 567.203 865.135L572.578 870.153C574.377 871.832 575.83 873.846 576.857 876.082C580.469 883.95 578.272 893.266 571.526 898.692L560.417 907.627C558.371 909.272 556.157 910.696 553.811 911.875L551.349 913.113C538.612 919.515 524.083 921.42 510.126 918.517L494.472 915.261C484.555 912.193 477.792 903.023 477.792 892.642V885.375C477.792 877.451 473.842 870.048 467.26 865.637L465.311 864.33C463.396 863.047 461.822 861.319 460.723 859.293Z" fill="#9F9789"/>
<path d="M200.429 32.4795C183.633 29.2026 166.613 36.9727 158.087 51.8098L153.271 60.1923C142.698 78.5904 138.252 99.8746 140.576 120.966L159.216 290.167V396.039V511.022C159.216 524.96 162.13 538.744 167.77 551.49L223.067 676.447C231.457 695.405 245.531 711.287 263.343 721.895L471.669 845.972C503.687 865.041 543.652 864.725 575.364 845.151L769.004 725.628C789.912 712.722 805.338 692.57 812.336 669.017L850.013 542.226C853.961 528.939 855.104 514.976 853.369 501.223L828.218 301.891C827.235 294.102 827.173 286.225 828.033 278.422L845.379 120.966C847.703 99.8745 843.257 78.5904 832.685 60.1923L827.868 51.8098C819.342 36.9727 802.322 29.2026 785.526 32.4795L760.237 37.4137C737.918 41.7682 717.75 53.5994 703.058 70.956L600.658 191.934C596.098 197.321 589.397 200.428 582.339 200.428L403.616 200.428C396.558 200.428 389.858 197.321 385.297 191.934L282.897 70.956C268.205 53.5994 248.037 41.7682 225.718 37.4137L200.429 32.4795Z" fill="#1F201D"/>
<path d="M412.565 522.173C419.088 516.225 422.22 507.419 420.92 498.687L420.753 497.564C419.594 489.783 415.286 482.821 408.838 478.313L390.133 465.235C384.34 461.184 377.832 458.267 370.953 456.638L344.249 450.312C340.571 449.44 336.804 449 333.024 449H319.871C310.199 449 301.296 454.272 296.646 462.754C293.646 468.227 292.675 474.585 293.905 480.705L295.909 490.674C297.35 497.845 300.224 504.652 304.359 510.686L306.859 514.334C311.126 520.561 316.608 525.861 322.975 529.915L329.431 534.027C335.561 537.93 342.391 540.603 349.542 541.896L353.307 542.578C365.568 544.796 378.218 542.862 389.256 537.081L391.519 535.896L408.807 525.032C410.142 524.193 411.4 523.236 412.565 522.173Z" fill="#726A50"/>
<path d="M593.435 525.173C586.912 519.225 583.78 510.419 585.08 501.687L585.247 500.564C586.406 492.783 590.714 485.821 597.162 481.313L615.867 468.235C621.66 464.184 628.168 461.267 635.047 459.638L661.751 453.312C665.429 452.44 669.196 452 672.976 452H686.129C695.801 452 704.704 457.272 709.354 465.754C712.354 471.227 713.325 477.585 712.095 483.705L710.091 493.674C708.65 500.845 705.776 507.652 701.641 513.686L699.141 517.334C694.874 523.561 689.392 528.861 683.025 532.915L676.569 537.027C670.439 540.93 663.609 543.603 656.458 544.896L652.693 545.578C640.432 547.796 627.782 545.862 616.744 540.081L614.481 538.896L597.193 528.032C595.858 527.193 594.6 526.236 593.435 525.173Z" fill="#726A50"/>
<path d="M354.348 455C344.196 455 334.778 460.293 329.5 468.964L328.66 470.344C325.612 475.351 324 481.101 324 486.963V494.554C324 503.12 327.604 511.291 333.93 517.066C342.012 524.445 353.429 526.926 363.844 523.566L364.805 523.257C373.228 520.539 380.163 514.477 383.982 506.492L384.457 505.5C387.419 499.305 388.482 492.373 387.511 485.575L387.435 485.042C385.899 474.296 379.463 464.871 370.013 459.529L368.662 458.765C364.295 456.297 359.364 455 354.348 455Z" fill="#171C1D"/>
<path d="M650.662 457C661.182 457 670.964 462.41 676.555 471.322L677.062 472.129C680.288 477.272 682 483.22 682 489.292V495.953C682 504.886 678.172 513.391 671.485 519.314C663.298 526.566 651.911 529.003 641.472 525.736L640.122 525.313C631.32 522.559 624.031 516.318 619.952 508.046L619.775 507.686C616.665 501.378 615.555 494.234 616.579 487.277C618.176 476.435 624.77 466.904 634.379 461.634L635.964 460.765C640.469 458.295 645.524 457 650.662 457Z" fill="#171C1D"/>
<path d="M456 641.338C456 639.874 456.989 638.595 458.407 638.227L478.638 632.973C483.622 631.679 488.854 631.679 493.838 632.973L516.476 638.852C522.934 641.367 530.123 641.234 536.483 638.482L541.588 636.272C543.658 635.376 545.8 634.658 547.991 634.124L557.784 631.74C559.804 631.249 561.876 631 563.956 631H570.223C571.971 631 573.669 631.583 575.049 632.658C579.084 635.801 579.084 641.902 575.049 645.046L574.365 645.579C573.413 646.32 572.314 646.851 571.142 647.137L567.332 648.064C563.06 649.104 559.11 651.18 555.83 654.107L555.006 654.843C550.919 658.491 548.041 663.297 546.754 668.621L545.864 672.304C545.107 675.441 543.376 678.257 540.92 680.349C538.154 682.706 534.639 684 531.006 684H517.811C516.922 684 516.036 683.929 515.159 683.786L507.76 682.585C502.599 681.748 499.15 676.812 500.139 671.678C500.871 667.874 499.163 664.016 495.854 662.003L494.052 660.906C493.547 660.599 493.021 660.328 492.477 660.097L480.076 654.814C478.156 653.996 476.091 653.574 474.004 653.574C470.199 653.574 466.526 652.173 463.687 649.639L457.074 643.736C456.391 643.126 456 642.254 456 641.338Z" fill="#2C2A26"/>
</g>
<defs>
<clipPath id="clip0_2229_80">
<rect width="1024" height="1024" fill="white"/>
</clipPath>
</defs>
</svg>
