<svg width="1088" height="1088" viewBox="0 0 1088 1088" fill="none" xmlns="http://www.w3.org/2000/svg">
<mask id="path-1-outside-1_2229_117" maskUnits="userSpaceOnUse" x="222.756" y="153.388" width="619" height="812" fill="black">
<rect fill="white" x="222.756" y="153.388" width="619" height="812"/>
<path fill-rule="evenodd" clip-rule="evenodd" d="M759.277 179.075C774.833 176.04 790.597 183.237 798.494 196.98C808.287 214.021 812.404 233.735 810.252 253.271L797.085 372.788C796.226 380.591 796.288 388.469 797.271 396.257L816.57 549.208C818.305 562.961 817.161 576.923 813.213 590.21L786.444 680.299C782.542 693.428 776.021 705.499 767.393 715.848C782.637 723.911 792.508 740.324 791.466 758.527C791.141 764.196 789.754 769.755 787.377 774.912L762.012 829.943C759.785 834.775 757.075 839.37 753.924 843.658L727.492 879.622C720.298 889.411 710.943 897.409 700.155 902.994L643.254 932.451C629.804 939.415 614.635 942.364 599.555 940.95L537.412 935.119C530.027 934.426 522.775 932.696 515.872 929.981L447.691 903.159C439.291 899.855 431.52 895.136 424.715 889.207L382.416 852.354C379.552 849.859 376.872 847.16 374.397 844.28L310.951 770.453L279.102 726.609C273.377 718.728 270.652 709.063 271.416 699.352C272.759 682.294 284.359 668.57 299.609 663.627L270.327 597.458C264.687 584.713 261.774 570.928 261.774 556.991V384.534L247.313 253.271C245.161 233.735 249.278 214.021 259.071 196.98C266.968 183.237 282.733 176.04 298.289 179.075L308.079 180.986C330.398 185.34 350.566 197.171 365.257 214.528L441.2 304.248C445.76 309.636 452.461 312.742 459.519 312.742H598.046C605.104 312.742 611.804 309.636 616.365 304.248L692.308 214.528C706.999 197.171 727.167 185.34 749.486 180.986L759.277 179.075Z"/>
</mask>
<path fill-rule="evenodd" clip-rule="evenodd" d="M759.277 179.075C774.833 176.04 790.597 183.237 798.494 196.98C808.287 214.021 812.404 233.735 810.252 253.271L797.085 372.788C796.226 380.591 796.288 388.469 797.271 396.257L816.57 549.208C818.305 562.961 817.161 576.923 813.213 590.21L786.444 680.299C782.542 693.428 776.021 705.499 767.393 715.848C782.637 723.911 792.508 740.324 791.466 758.527C791.141 764.196 789.754 769.755 787.377 774.912L762.012 829.943C759.785 834.775 757.075 839.37 753.924 843.658L727.492 879.622C720.298 889.411 710.943 897.409 700.155 902.994L643.254 932.451C629.804 939.415 614.635 942.364 599.555 940.95L537.412 935.119C530.027 934.426 522.775 932.696 515.872 929.981L447.691 903.159C439.291 899.855 431.52 895.136 424.715 889.207L382.416 852.354C379.552 849.859 376.872 847.16 374.397 844.28L310.951 770.453L279.102 726.609C273.377 718.728 270.652 709.063 271.416 699.352C272.759 682.294 284.359 668.57 299.609 663.627L270.327 597.458C264.687 584.713 261.774 570.928 261.774 556.991V384.534L247.313 253.271C245.161 233.735 249.278 214.021 259.071 196.98C266.968 183.237 282.733 176.04 298.289 179.075L308.079 180.986C330.398 185.34 350.566 197.171 365.257 214.528L441.2 304.248C445.76 309.636 452.461 312.742 459.519 312.742H598.046C605.104 312.742 611.804 309.636 616.365 304.248L692.308 214.528C706.999 197.171 727.167 185.34 749.486 180.986L759.277 179.075Z" fill="#9F9789"/>
<path fill-rule="evenodd" clip-rule="evenodd" d="M759.277 179.075L763.872 202.631L763.872 202.631L759.277 179.075ZM798.494 196.98L819.303 185.022V185.022L798.494 196.98ZM810.252 253.271L834.108 255.899V255.899L810.252 253.271ZM797.085 372.788L773.23 370.16V370.16L797.085 372.788ZM797.271 396.257L773.46 399.261V399.262L797.271 396.257ZM816.57 549.208L840.381 546.204V546.204L816.57 549.208ZM813.213 590.21L790.207 583.374V583.374L813.213 590.21ZM786.444 680.299L809.449 687.135V687.135L786.444 680.299ZM767.393 715.848L748.959 700.48L730.001 723.22L756.171 737.063L767.393 715.848ZM791.466 758.527L815.427 759.899V759.899L791.466 758.527ZM787.377 774.912L809.173 784.959L809.173 784.959L787.377 774.912ZM762.012 829.943L740.216 819.896L740.216 819.896L762.012 829.943ZM753.924 843.658L773.263 857.87V857.87L753.924 843.658ZM727.492 879.622L746.831 893.835L727.492 879.622ZM700.155 902.994L711.188 924.308L711.188 924.308L700.155 902.994ZM643.254 932.451L632.22 911.138L632.22 911.138L643.254 932.451ZM599.555 940.95L601.797 917.054H601.797L599.555 940.95ZM537.412 935.119L535.17 959.014L535.171 959.015L537.412 935.119ZM515.872 929.981L524.658 907.647H524.658L515.872 929.981ZM447.691 903.159L438.905 925.494H438.905L447.691 903.159ZM424.715 889.207L408.949 907.303L408.949 907.303L424.715 889.207ZM382.416 852.354L398.182 834.259L398.182 834.258L382.416 852.354ZM374.397 844.28L392.599 828.637H392.599L374.397 844.28ZM310.951 770.453L291.534 784.559L292.11 785.352L292.749 786.096L310.951 770.453ZM279.102 726.609L259.684 740.714L259.684 740.714L279.102 726.609ZM271.416 699.352L247.49 697.468L247.49 697.468L271.416 699.352ZM299.609 663.627L307.009 686.458L332.325 678.252L321.556 653.915L299.609 663.627ZM270.327 597.458L292.274 587.746L292.274 587.746L270.327 597.458ZM261.774 384.534H285.774V383.216L285.629 381.906L261.774 384.534ZM247.313 253.271L223.457 255.899L223.457 255.899L247.313 253.271ZM259.071 196.98L238.262 185.022L238.262 185.022L259.071 196.98ZM298.289 179.075L302.885 155.52L302.885 155.52L298.289 179.075ZM308.079 180.986L303.483 204.541L303.483 204.541L308.079 180.986ZM365.257 214.528L383.576 199.022L383.576 199.022L365.257 214.528ZM441.2 304.248L422.882 319.754L441.2 304.248ZM459.519 312.742L459.518 336.742H459.519V312.742ZM598.046 312.742V336.742H598.046L598.046 312.742ZM616.365 304.248L634.683 319.754L616.365 304.248ZM692.308 214.528L673.989 199.022L673.989 199.022L692.308 214.528ZM749.486 180.986L744.89 157.43L744.89 157.43L749.486 180.986ZM759.277 179.075L763.872 202.631C769.352 201.562 774.904 204.097 777.685 208.938L798.494 196.98L819.303 185.022C806.291 162.377 780.315 150.518 754.681 155.52L759.277 179.075ZM798.494 196.98L777.685 208.937C784.94 221.563 787.991 236.169 786.397 250.643L810.252 253.271L834.108 255.899C836.818 231.301 831.633 206.479 819.303 185.022L798.494 196.98ZM810.252 253.271L786.397 250.643L773.23 370.16L797.085 372.788L820.941 375.417L834.108 255.899L810.252 253.271ZM797.085 372.788L773.23 370.16C772.164 379.837 772.241 389.605 773.46 399.261L797.271 396.257L821.082 393.253C820.335 387.333 820.288 381.346 820.941 375.416L797.085 372.788ZM797.271 396.257L773.46 399.262L792.758 552.213L816.57 549.208L840.381 546.204L821.082 393.253L797.271 396.257ZM816.57 549.208L792.758 552.213C794.077 562.664 793.208 573.275 790.207 583.374L813.213 590.21L836.219 597.046C841.115 580.571 842.532 563.257 840.381 546.204L816.57 549.208ZM813.213 590.21L790.207 583.374L763.438 673.463L786.444 680.299L809.449 687.135L836.219 597.046L813.213 590.21ZM786.444 680.299L763.438 673.463C760.474 683.438 755.518 692.611 748.959 700.48L767.393 715.848L785.827 731.216C796.523 718.386 804.611 703.418 809.449 687.135L786.444 680.299ZM767.393 715.848L756.171 737.063C763.384 740.878 767.994 748.623 767.505 757.154L791.466 758.527L815.427 759.899C817.023 732.026 801.89 706.945 778.615 694.633L767.393 715.848ZM791.466 758.527L767.505 757.154C767.352 759.823 766.7 762.439 765.581 764.866L787.377 774.912L809.173 784.959C812.809 777.07 814.93 768.569 815.427 759.899L791.466 758.527ZM787.377 774.912L765.581 764.866L740.216 819.896L762.012 829.943L783.808 839.989L809.173 784.959L787.377 774.912ZM762.012 829.943L740.216 819.896C738.665 823.261 736.778 826.461 734.585 829.445L753.924 843.658L773.263 857.87C777.372 852.28 780.905 846.288 783.808 839.989L762.012 829.943ZM753.924 843.658L734.585 829.445L708.153 865.41L727.492 879.622L746.831 893.835L773.263 857.87L753.924 843.658ZM727.492 879.622L708.153 865.41C703.145 872.224 696.632 877.793 689.121 881.681L700.155 902.994L711.188 924.308C725.254 917.026 737.451 906.598 746.831 893.835L727.492 879.622ZM700.155 902.994L689.121 881.681L632.22 911.138L643.254 932.451L654.288 953.765L711.188 924.308L700.155 902.994ZM643.254 932.451L632.22 911.138C622.856 915.986 612.296 918.039 601.797 917.054L599.555 940.95L597.313 964.845C616.974 966.689 636.751 962.844 654.288 953.765L643.254 932.451ZM599.555 940.95L601.797 917.054L539.654 911.224L537.412 935.119L535.171 959.015L597.313 964.845L599.555 940.95ZM537.412 935.119L539.654 911.224C534.513 910.742 529.465 909.538 524.658 907.647L515.872 929.981L507.087 952.315C516.086 955.855 525.54 958.111 535.17 959.014L537.412 935.119ZM515.872 929.981L524.658 907.647L456.476 880.825L447.691 903.159L438.905 925.494L507.087 952.315L515.872 929.981ZM447.691 903.159L456.476 880.825C450.629 878.525 445.218 875.24 440.481 871.112L424.715 889.207L408.949 907.303C417.822 915.033 427.954 921.186 438.905 925.494L447.691 903.159ZM424.715 889.207L440.481 871.112L398.182 834.259L382.416 852.354L366.65 870.449L408.949 907.303L424.715 889.207ZM382.416 852.354L398.182 834.258C396.188 832.521 394.322 830.643 392.599 828.637L374.397 844.28L356.195 859.922C359.422 863.678 362.917 867.196 366.651 870.449L382.416 852.354ZM374.397 844.28L392.599 828.637L329.153 754.811L310.951 770.453L292.749 786.096L356.195 859.922L374.397 844.28ZM310.951 770.453L330.369 756.348L298.519 712.503L279.102 726.609L259.684 740.714L291.534 784.559L310.951 770.453ZM279.102 726.609L298.519 712.504C296.153 709.245 295.026 705.25 295.342 701.236L271.416 699.352L247.49 697.468C246.277 712.875 250.601 728.21 259.684 740.714L279.102 726.609ZM271.416 699.352L295.342 701.236C295.894 694.228 300.643 688.521 307.009 686.458L299.609 663.627L292.208 640.797C268.074 648.619 249.625 670.359 247.49 697.468L271.416 699.352ZM299.609 663.627L321.556 653.915L292.274 587.746L270.327 597.458L248.38 607.17L277.662 673.339L299.609 663.627ZM270.327 597.458L292.274 587.746C287.988 578.06 285.774 567.584 285.774 556.991H261.774H237.774C237.774 574.273 241.386 591.366 248.38 607.171L270.327 597.458ZM261.774 556.991H285.774V384.534H261.774H237.774V556.991H261.774ZM261.774 384.534L285.629 381.906L271.168 250.643L247.313 253.271L223.457 255.899L237.918 387.163L261.774 384.534ZM247.313 253.271L271.168 250.643C269.574 236.169 272.625 221.563 279.88 208.937L259.071 196.98L238.262 185.022C225.932 206.479 220.747 231.301 223.457 255.899L247.313 253.271ZM259.071 196.98L279.88 208.937C282.661 204.097 288.214 201.562 293.693 202.631L298.289 179.075L302.885 155.52C277.252 150.518 251.274 162.377 238.262 185.022L259.071 196.98ZM298.289 179.075L293.693 202.631L303.483 204.541L308.079 180.986L312.675 157.43L302.885 155.52L298.289 179.075ZM308.079 180.986L303.483 204.541C320.445 207.851 335.773 216.843 346.938 230.033L365.257 214.528L383.576 199.022C365.359 177.5 340.35 162.829 312.675 157.43L308.079 180.986ZM365.257 214.528L346.938 230.033L422.882 319.754L441.2 304.248L459.519 288.743L383.576 199.022L365.257 214.528ZM441.2 304.248L422.882 319.754C432.002 330.529 445.403 336.742 459.518 336.742L459.519 312.742L459.519 288.742L459.519 288.743L441.2 304.248ZM459.519 312.742V336.742H598.046V312.742V288.742H459.519V312.742ZM598.046 312.742L598.046 336.742C612.162 336.742 625.563 330.529 634.683 319.754L616.365 304.248L598.046 288.743L598.046 288.742L598.046 312.742ZM616.365 304.248L634.683 319.754L710.627 230.033L692.308 214.528L673.989 199.022L598.046 288.743L616.365 304.248ZM692.308 214.528L710.626 230.033C721.792 216.843 737.12 207.851 754.082 204.541L749.486 180.986L744.89 157.43C717.215 162.829 692.206 177.5 673.989 199.022L692.308 214.528ZM749.486 180.986L754.081 204.542L763.872 202.631L759.277 179.075L754.681 155.52L744.89 157.43L749.486 180.986Z" fill="#9F9789" mask="url(#path-1-outside-1_2229_117)"/>
<circle cx="544" cy="512" r="383.5" fill="#9F9789" stroke="#9F9789"/>
<path d="M316.786 661.907C293.796 659.316 273.232 676.287 271.416 699.351C270.651 709.062 273.377 718.727 279.102 726.608L310.951 770.453L374.396 844.28C376.872 847.16 379.552 849.859 382.416 852.354L424.715 889.207C431.52 895.136 439.291 899.855 447.69 903.159L515.872 929.981C522.775 932.696 530.027 934.426 537.412 935.119L599.554 940.95C614.634 942.365 629.803 939.415 643.254 932.451L700.154 902.994C710.942 897.409 720.297 889.411 727.492 879.622L753.923 843.657C757.074 839.369 759.784 834.775 762.011 829.943L787.376 774.912C789.754 769.754 791.141 764.196 791.465 758.526C792.841 734.496 775.2 713.58 751.282 710.884L316.786 661.907Z" fill="#1F201D"/>
<path d="M502.978 839.834C498.481 831.546 505.428 821.695 514.746 823.148L551.532 828.887L569.897 834.162C576.717 836.121 582.976 839.666 588.162 844.508L592.462 848.522C593.901 849.866 595.064 851.477 595.885 853.266C598.775 859.56 597.018 867.013 591.621 871.354L582.733 878.501C581.097 879.818 579.326 880.957 577.449 881.9L575.479 882.89C565.289 888.012 553.666 889.536 542.501 887.214L529.977 884.609C522.044 882.155 516.634 874.819 516.634 866.514V860.7C516.634 854.361 513.474 848.439 508.208 844.909L506.649 843.864C505.117 842.838 503.858 841.455 502.978 839.834Z" fill="#9F9789"/>
<path d="M298.288 179.075C282.732 176.04 266.967 183.237 259.07 196.98C249.278 214.021 245.16 233.735 247.312 253.271L261.773 384.534V469.231V556.99C261.773 570.928 264.687 584.712 270.327 597.458L310.275 687.729C318.664 706.687 332.739 722.569 350.55 733.178L501.316 822.972C533.334 842.041 573.299 841.725 605.011 822.151L743.11 736.91C764.018 724.004 779.444 703.852 786.443 680.299L813.213 590.21C817.161 576.923 818.304 562.96 816.569 549.208L797.27 396.257C796.288 388.469 796.225 380.592 797.085 372.789L810.252 253.271C812.404 233.735 808.286 214.021 798.494 196.98C790.597 183.237 774.832 176.04 759.276 179.075L749.486 180.985C727.167 185.34 706.999 197.171 692.307 214.528L616.364 304.248C611.804 309.636 605.104 312.743 598.045 312.743L459.519 312.743C452.46 312.743 445.76 309.636 441.2 304.248L365.257 214.528C350.565 197.171 330.397 185.34 308.079 180.985L298.288 179.075Z" fill="#1F201D"/>
<path d="M464.452 570.139C469.67 565.38 472.176 558.335 471.136 551.35L471.002 550.451C470.075 544.227 466.628 538.657 461.471 535.051L448.26 525.814C442.467 521.764 435.959 518.847 429.08 517.217L409.799 512.649C406.857 511.952 403.843 511.6 400.819 511.6H390.297C382.559 511.6 375.437 515.818 371.717 522.603C369.316 526.982 368.54 532.068 369.524 536.964L371.127 544.939C372.28 550.676 374.579 556.121 377.887 560.949L378.963 562.518C382.986 568.39 388.155 573.388 394.16 577.211L397.005 579.023C402.529 582.541 408.685 584.95 415.13 586.116C426.18 588.115 437.668 586.326 447.616 581.117L461.446 572.426C462.514 571.754 463.52 570.989 464.452 570.139Z" fill="#726A50"/>
<path d="M609.148 572.539C603.93 567.78 601.424 560.735 602.464 553.75L602.598 552.851C603.525 546.627 606.972 541.057 612.13 537.451L625.34 528.214C631.133 524.164 637.641 521.246 644.52 519.617L663.801 515.049C666.743 514.352 669.757 514 672.781 514H683.303C691.041 514 698.164 518.218 701.883 525.003C704.284 529.382 705.06 534.468 704.076 539.364L702.473 547.339C701.32 553.076 699.021 558.521 695.713 563.349L694.637 564.918C690.614 570.79 685.445 575.788 679.441 579.611L676.595 581.423C671.071 584.941 664.915 587.35 658.47 588.516C647.42 590.515 635.933 588.726 625.985 583.517L612.155 574.826C611.086 574.154 610.08 573.389 609.148 572.539Z" fill="#726A50"/>
<path d="M417.878 516.4C409.757 516.4 402.223 520.634 398 527.572L397.328 528.675C394.89 532.681 393.6 537.281 393.6 541.97V548.043C393.6 554.896 396.483 561.432 401.544 566.053C408.009 571.956 417.143 573.941 425.475 571.253L426.244 571.005C432.983 568.831 438.531 563.981 441.586 557.594L441.965 556.8C444.335 551.844 445.185 546.298 444.409 540.86L444.348 540.434C443.12 531.837 437.971 524.297 430.41 520.023L429.329 519.412C425.836 517.438 421.891 516.4 417.878 516.4Z" fill="#171C1D"/>
<path d="M654.929 518C663.346 518 671.171 522.328 675.644 529.458L676.049 530.104C678.631 534.218 680 538.976 680 543.833V549.163C680 556.309 676.938 563.113 671.588 567.851C665.038 573.653 655.929 575.602 647.578 572.989L646.497 572.651C639.456 570.447 633.624 565.455 630.362 558.837L630.22 558.549C627.732 553.503 626.844 547.787 627.663 542.222C628.94 533.548 634.216 525.923 641.903 521.708L643.172 521.012C646.775 519.036 650.819 518 654.929 518Z" fill="#171C1D"/>
<path d="M499.2 665.471C499.2 664.299 499.991 663.276 501.125 662.982L517.311 658.779C521.298 657.743 525.483 657.743 529.47 658.779L547.581 663.481C552.747 665.494 558.498 665.387 563.586 663.185L567.671 661.418C569.326 660.701 571.04 660.126 572.793 659.699L580.627 657.792C582.243 657.399 583.901 657.2 585.565 657.2H590.579C591.977 657.2 593.336 657.667 594.439 658.526C597.667 661.041 597.667 665.922 594.439 668.437L593.892 668.863C593.13 669.456 592.251 669.881 591.313 670.109L588.266 670.851C584.848 671.683 581.688 673.344 579.064 675.686L578.404 676.274C575.135 679.192 572.833 683.037 571.804 687.297L571.091 690.243C570.485 692.752 569.101 695.005 567.136 696.679C564.923 698.565 562.111 699.6 559.205 699.6H548.648C547.938 699.6 547.229 699.543 546.527 699.429L540.608 698.468C536.479 697.798 533.72 693.85 534.511 689.742C535.097 686.7 533.73 683.613 531.083 682.002L529.642 681.125C529.238 680.879 528.817 680.663 528.381 680.477L518.461 676.251C516.925 675.597 515.273 675.259 513.603 675.259C510.559 675.259 507.621 674.139 505.35 672.111L500.059 667.389C499.512 666.901 499.2 666.203 499.2 665.471Z" fill="#2C2A26"/>
<path d="M77.4597 493.843C79.2468 489.969 84.7532 489.969 86.5403 493.843L94.9346 512.042C95.6629 513.621 97.1593 514.708 98.8862 514.913L118.788 517.273C123.025 517.775 124.727 523.012 121.594 525.909L106.88 539.516C105.603 540.697 105.032 542.456 105.371 544.162L109.277 563.819C110.108 568.004 105.653 571.24 101.93 569.156L84.4422 559.367C82.9248 558.518 81.0752 558.518 79.5578 559.367L62.0697 569.156C58.3466 571.24 53.8918 568.004 54.7233 563.819L58.6292 544.162C58.9681 542.456 58.3965 540.697 57.1198 539.516L42.4057 525.909C39.2732 523.012 40.9748 517.775 45.2118 517.273L65.1138 514.913C66.8407 514.708 68.3371 513.621 69.0654 512.042L77.4597 493.843Z" fill="#726A50"/>
<path d="M1001.46 493.843C1003.25 489.969 1008.75 489.969 1010.54 493.843L1018.93 512.042C1019.66 513.621 1021.16 514.708 1022.89 514.913L1042.79 517.273C1047.03 517.775 1048.73 523.012 1045.59 525.909L1030.88 539.516C1029.6 540.697 1029.03 542.456 1029.37 544.162L1033.28 563.819C1034.11 568.004 1029.65 571.24 1025.93 569.156L1008.44 559.367C1006.92 558.518 1005.08 558.518 1003.56 559.367L986.07 569.156C982.347 571.24 977.892 568.004 978.723 563.819L982.629 544.162C982.968 542.456 982.397 540.697 981.12 539.516L966.406 525.909C963.273 523.012 964.975 517.775 969.212 517.273L989.114 514.913C990.841 514.708 992.337 513.621 993.065 512.042L1001.46 493.843Z" fill="#726A50"/>
</svg>
