<svg width="1088" height="1088" viewBox="0 0 1088 1088" fill="none" xmlns="http://www.w3.org/2000/svg">
<g clip-path="url(#clip0_2229_7)">
<mask id="path-1-outside-1_2229_7" maskUnits="userSpaceOnUse" x="222.756" y="153.388" width="619" height="812" fill="black">
<rect fill="white" x="222.756" y="153.388" width="619" height="812"/>
<path fill-rule="evenodd" clip-rule="evenodd" d="M759.277 179.075C774.833 176.04 790.597 183.237 798.494 196.98C808.287 214.021 812.404 233.735 810.252 253.271L797.085 372.788C796.226 380.591 796.288 388.469 797.271 396.257L816.57 549.208C818.305 562.961 817.161 576.923 813.213 590.21L786.444 680.299C782.542 693.428 776.021 705.499 767.393 715.848C782.637 723.911 792.508 740.324 791.466 758.527C791.141 764.196 789.754 769.755 787.377 774.912L762.012 829.943C759.785 834.775 757.075 839.37 753.924 843.658L727.492 879.622C720.298 889.411 710.943 897.409 700.155 902.994L643.254 932.451C629.804 939.415 614.635 942.364 599.555 940.95L537.412 935.119C530.027 934.426 522.775 932.696 515.872 929.981L447.691 903.159C439.291 899.855 431.52 895.136 424.715 889.207L382.416 852.354C379.552 849.859 376.872 847.16 374.397 844.28L310.951 770.453L279.102 726.609C273.377 718.728 270.652 709.063 271.416 699.352C272.759 682.294 284.359 668.57 299.609 663.627L270.327 597.458C264.687 584.713 261.774 570.928 261.774 556.991V384.534L247.313 253.271C245.161 233.735 249.278 214.021 259.071 196.98C266.968 183.237 282.733 176.04 298.289 179.075L308.079 180.986C330.398 185.34 350.566 197.171 365.257 214.528L441.2 304.248C445.76 309.636 452.461 312.742 459.519 312.742H598.046C605.104 312.742 611.804 309.636 616.365 304.248L692.308 214.528C706.999 197.171 727.167 185.34 749.486 180.986L759.277 179.075Z"/>
</mask>
<path fill-rule="evenodd" clip-rule="evenodd" d="M759.277 179.075C774.833 176.04 790.597 183.237 798.494 196.98C808.287 214.021 812.404 233.735 810.252 253.271L797.085 372.788C796.226 380.591 796.288 388.469 797.271 396.257L816.57 549.208C818.305 562.961 817.161 576.923 813.213 590.21L786.444 680.299C782.542 693.428 776.021 705.499 767.393 715.848C782.637 723.911 792.508 740.324 791.466 758.527C791.141 764.196 789.754 769.755 787.377 774.912L762.012 829.943C759.785 834.775 757.075 839.37 753.924 843.658L727.492 879.622C720.298 889.411 710.943 897.409 700.155 902.994L643.254 932.451C629.804 939.415 614.635 942.364 599.555 940.95L537.412 935.119C530.027 934.426 522.775 932.696 515.872 929.981L447.691 903.159C439.291 899.855 431.52 895.136 424.715 889.207L382.416 852.354C379.552 849.859 376.872 847.16 374.397 844.28L310.951 770.453L279.102 726.609C273.377 718.728 270.652 709.063 271.416 699.352C272.759 682.294 284.359 668.57 299.609 663.627L270.327 597.458C264.687 584.713 261.774 570.928 261.774 556.991V384.534L247.313 253.271C245.161 233.735 249.278 214.021 259.071 196.98C266.968 183.237 282.733 176.04 298.289 179.075L308.079 180.986C330.398 185.34 350.566 197.171 365.257 214.528L441.2 304.248C445.76 309.636 452.461 312.742 459.519 312.742H598.046C605.104 312.742 611.804 309.636 616.365 304.248L692.308 214.528C706.999 197.171 727.167 185.34 749.486 180.986L759.277 179.075Z" fill="#9F9789"/>
<path fill-rule="evenodd" clip-rule="evenodd" d="M759.277 179.075L763.872 202.631L763.872 202.631L759.277 179.075ZM798.494 196.98L819.303 185.022V185.022L798.494 196.98ZM810.252 253.271L834.108 255.899V255.899L810.252 253.271ZM797.085 372.788L773.23 370.16V370.16L797.085 372.788ZM797.271 396.257L773.46 399.261V399.262L797.271 396.257ZM816.57 549.208L840.381 546.204V546.204L816.57 549.208ZM813.213 590.21L790.207 583.374V583.374L813.213 590.21ZM786.444 680.299L809.449 687.135V687.135L786.444 680.299ZM767.393 715.848L748.959 700.48L730.001 723.22L756.171 737.063L767.393 715.848ZM791.466 758.527L815.427 759.899V759.899L791.466 758.527ZM787.377 774.912L809.173 784.959L809.173 784.959L787.377 774.912ZM762.012 829.943L740.216 819.896L740.216 819.896L762.012 829.943ZM753.924 843.658L773.263 857.87V857.87L753.924 843.658ZM727.492 879.622L746.831 893.835L727.492 879.622ZM700.155 902.994L711.188 924.308L711.188 924.308L700.155 902.994ZM643.254 932.451L632.22 911.138L632.22 911.138L643.254 932.451ZM599.555 940.95L601.797 917.054H601.797L599.555 940.95ZM537.412 935.119L535.17 959.014L535.171 959.015L537.412 935.119ZM515.872 929.981L524.658 907.647H524.658L515.872 929.981ZM447.691 903.159L438.905 925.494H438.905L447.691 903.159ZM424.715 889.207L408.949 907.303L408.949 907.303L424.715 889.207ZM382.416 852.354L398.182 834.259L398.182 834.258L382.416 852.354ZM374.397 844.28L392.599 828.637H392.599L374.397 844.28ZM310.951 770.453L291.534 784.559L292.11 785.352L292.749 786.096L310.951 770.453ZM279.102 726.609L259.684 740.714L259.684 740.714L279.102 726.609ZM271.416 699.352L247.49 697.468L247.49 697.468L271.416 699.352ZM299.609 663.627L307.009 686.458L332.325 678.252L321.556 653.915L299.609 663.627ZM270.327 597.458L292.274 587.746L292.274 587.746L270.327 597.458ZM261.774 384.534H285.774V383.216L285.629 381.906L261.774 384.534ZM247.313 253.271L223.457 255.899L223.457 255.899L247.313 253.271ZM259.071 196.98L238.262 185.022L238.262 185.022L259.071 196.98ZM298.289 179.075L302.885 155.52L302.885 155.52L298.289 179.075ZM308.079 180.986L303.483 204.541L303.483 204.541L308.079 180.986ZM365.257 214.528L383.576 199.022L383.576 199.022L365.257 214.528ZM441.2 304.248L422.882 319.754L441.2 304.248ZM459.519 312.742L459.518 336.742H459.519V312.742ZM598.046 312.742V336.742H598.046L598.046 312.742ZM616.365 304.248L634.683 319.754L616.365 304.248ZM692.308 214.528L673.989 199.022L673.989 199.022L692.308 214.528ZM749.486 180.986L744.89 157.43L744.89 157.43L749.486 180.986ZM759.277 179.075L763.872 202.631C769.352 201.562 774.904 204.097 777.685 208.938L798.494 196.98L819.303 185.022C806.291 162.377 780.315 150.518 754.681 155.52L759.277 179.075ZM798.494 196.98L777.685 208.937C784.94 221.563 787.991 236.169 786.397 250.643L810.252 253.271L834.108 255.899C836.818 231.301 831.633 206.479 819.303 185.022L798.494 196.98ZM810.252 253.271L786.397 250.643L773.23 370.16L797.085 372.788L820.941 375.417L834.108 255.899L810.252 253.271ZM797.085 372.788L773.23 370.16C772.164 379.837 772.241 389.605 773.46 399.261L797.271 396.257L821.082 393.253C820.335 387.333 820.288 381.346 820.941 375.416L797.085 372.788ZM797.271 396.257L773.46 399.262L792.758 552.213L816.57 549.208L840.381 546.204L821.082 393.253L797.271 396.257ZM816.57 549.208L792.758 552.213C794.077 562.664 793.208 573.275 790.207 583.374L813.213 590.21L836.219 597.046C841.115 580.571 842.532 563.257 840.381 546.204L816.57 549.208ZM813.213 590.21L790.207 583.374L763.438 673.463L786.444 680.299L809.449 687.135L836.219 597.046L813.213 590.21ZM786.444 680.299L763.438 673.463C760.474 683.438 755.518 692.611 748.959 700.48L767.393 715.848L785.827 731.216C796.523 718.386 804.611 703.418 809.449 687.135L786.444 680.299ZM767.393 715.848L756.171 737.063C763.384 740.878 767.994 748.623 767.505 757.154L791.466 758.527L815.427 759.899C817.023 732.026 801.89 706.945 778.615 694.633L767.393 715.848ZM791.466 758.527L767.505 757.154C767.352 759.823 766.7 762.439 765.581 764.866L787.377 774.912L809.173 784.959C812.809 777.07 814.93 768.569 815.427 759.899L791.466 758.527ZM787.377 774.912L765.581 764.866L740.216 819.896L762.012 829.943L783.808 839.989L809.173 784.959L787.377 774.912ZM762.012 829.943L740.216 819.896C738.665 823.261 736.778 826.461 734.585 829.445L753.924 843.658L773.263 857.87C777.372 852.28 780.905 846.288 783.808 839.989L762.012 829.943ZM753.924 843.658L734.585 829.445L708.153 865.41L727.492 879.622L746.831 893.835L773.263 857.87L753.924 843.658ZM727.492 879.622L708.153 865.41C703.145 872.224 696.632 877.793 689.121 881.681L700.155 902.994L711.188 924.308C725.254 917.026 737.451 906.598 746.831 893.835L727.492 879.622ZM700.155 902.994L689.121 881.681L632.22 911.138L643.254 932.451L654.288 953.765L711.188 924.308L700.155 902.994ZM643.254 932.451L632.22 911.138C622.856 915.986 612.296 918.039 601.797 917.054L599.555 940.95L597.313 964.845C616.974 966.689 636.751 962.844 654.288 953.765L643.254 932.451ZM599.555 940.95L601.797 917.054L539.654 911.224L537.412 935.119L535.171 959.015L597.313 964.845L599.555 940.95ZM537.412 935.119L539.654 911.224C534.513 910.742 529.465 909.538 524.658 907.647L515.872 929.981L507.087 952.315C516.086 955.855 525.54 958.111 535.17 959.014L537.412 935.119ZM515.872 929.981L524.658 907.647L456.476 880.825L447.691 903.159L438.905 925.494L507.087 952.315L515.872 929.981ZM447.691 903.159L456.476 880.825C450.629 878.525 445.218 875.24 440.481 871.112L424.715 889.207L408.949 907.303C417.822 915.033 427.954 921.186 438.905 925.494L447.691 903.159ZM424.715 889.207L440.481 871.112L398.182 834.259L382.416 852.354L366.65 870.449L408.949 907.303L424.715 889.207ZM382.416 852.354L398.182 834.258C396.188 832.521 394.322 830.643 392.599 828.637L374.397 844.28L356.195 859.922C359.422 863.678 362.917 867.196 366.651 870.449L382.416 852.354ZM374.397 844.28L392.599 828.637L329.153 754.811L310.951 770.453L292.749 786.096L356.195 859.922L374.397 844.28ZM310.951 770.453L330.369 756.348L298.519 712.503L279.102 726.609L259.684 740.714L291.534 784.559L310.951 770.453ZM279.102 726.609L298.519 712.504C296.153 709.245 295.026 705.25 295.342 701.236L271.416 699.352L247.49 697.468C246.277 712.875 250.601 728.21 259.684 740.714L279.102 726.609ZM271.416 699.352L295.342 701.236C295.894 694.228 300.643 688.521 307.009 686.458L299.609 663.627L292.208 640.797C268.074 648.619 249.625 670.359 247.49 697.468L271.416 699.352ZM299.609 663.627L321.556 653.915L292.274 587.746L270.327 597.458L248.38 607.17L277.662 673.339L299.609 663.627ZM270.327 597.458L292.274 587.746C287.988 578.06 285.774 567.584 285.774 556.991H261.774H237.774C237.774 574.273 241.386 591.366 248.38 607.171L270.327 597.458ZM261.774 556.991H285.774V384.534H261.774H237.774V556.991H261.774ZM261.774 384.534L285.629 381.906L271.168 250.643L247.313 253.271L223.457 255.899L237.918 387.163L261.774 384.534ZM247.313 253.271L271.168 250.643C269.574 236.169 272.625 221.563 279.88 208.937L259.071 196.98L238.262 185.022C225.932 206.479 220.747 231.301 223.457 255.899L247.313 253.271ZM259.071 196.98L279.88 208.937C282.661 204.097 288.214 201.562 293.693 202.631L298.289 179.075L302.885 155.52C277.252 150.518 251.274 162.377 238.262 185.022L259.071 196.98ZM298.289 179.075L293.693 202.631L303.483 204.541L308.079 180.986L312.675 157.43L302.885 155.52L298.289 179.075ZM308.079 180.986L303.483 204.541C320.445 207.851 335.773 216.843 346.938 230.033L365.257 214.528L383.576 199.022C365.359 177.5 340.35 162.829 312.675 157.43L308.079 180.986ZM365.257 214.528L346.938 230.033L422.882 319.754L441.2 304.248L459.519 288.743L383.576 199.022L365.257 214.528ZM441.2 304.248L422.882 319.754C432.002 330.529 445.403 336.742 459.518 336.742L459.519 312.742L459.519 288.742L459.519 288.743L441.2 304.248ZM459.519 312.742V336.742H598.046V312.742V288.742H459.519V312.742ZM598.046 312.742L598.046 336.742C612.162 336.742 625.563 330.529 634.683 319.754L616.365 304.248L598.046 288.743L598.046 288.742L598.046 312.742ZM616.365 304.248L634.683 319.754L710.627 230.033L692.308 214.528L673.989 199.022L598.046 288.743L616.365 304.248ZM692.308 214.528L710.626 230.033C721.792 216.843 737.12 207.851 754.082 204.541L749.486 180.986L744.89 157.43C717.215 162.829 692.206 177.5 673.989 199.022L692.308 214.528ZM749.486 180.986L754.081 204.542L763.872 202.631L759.277 179.075L754.681 155.52L744.89 157.43L749.486 180.986Z" fill="#9F9789" mask="url(#path-1-outside-1_2229_7)"/>
<circle cx="544" cy="512" r="383.5" fill="#9F9789" stroke="#9F9789"/>
<path d="M316.786 661.907C293.796 659.316 273.232 676.287 271.416 699.351C270.651 709.062 273.377 718.727 279.102 726.608L310.951 770.453L374.396 844.28C376.872 847.16 379.552 849.859 382.416 852.354L424.715 889.207C431.52 895.136 439.291 899.855 447.69 903.159L515.872 929.981C522.775 932.696 530.027 934.426 537.412 935.119L599.554 940.95C614.634 942.365 629.803 939.415 643.254 932.451L700.154 902.994C710.942 897.409 720.297 889.411 727.492 879.622L753.923 843.657C757.074 839.369 759.784 834.775 762.011 829.943L787.376 774.912C789.754 769.754 791.141 764.196 791.465 758.526C792.841 734.496 775.2 713.58 751.282 710.884L316.786 661.907Z" fill="#1F201D"/>
<path d="M502.978 839.834C498.481 831.546 505.428 821.695 514.746 823.148L551.532 828.887L569.897 834.162C576.717 836.121 582.976 839.666 588.162 844.508L592.462 848.522C593.901 849.866 595.064 851.477 595.885 853.266C598.775 859.56 597.018 867.013 591.621 871.354L582.733 878.501C581.097 879.818 579.326 880.957 577.449 881.9L575.479 882.89C565.289 888.012 553.666 889.536 542.501 887.214L529.977 884.609C522.044 882.155 516.634 874.819 516.634 866.514V860.7C516.634 854.361 513.474 848.439 508.208 844.909L506.649 843.864C505.117 842.838 503.858 841.455 502.978 839.834Z" fill="#9F9789"/>
<path d="M298.288 179.075C282.732 176.04 266.967 183.237 259.07 196.98C249.278 214.021 245.16 233.735 247.312 253.271L261.773 384.534V469.231V556.99C261.773 570.928 264.687 584.712 270.327 597.458L310.275 687.729C318.664 706.687 332.739 722.569 350.55 733.178L501.316 822.972C533.334 842.041 573.299 841.725 605.011 822.151L743.11 736.91C764.018 724.004 779.444 703.852 786.443 680.299L813.213 590.21C817.161 576.923 818.304 562.96 816.569 549.208L797.27 396.257C796.288 388.469 796.225 380.592 797.085 372.789L810.252 253.271C812.404 233.735 808.286 214.021 798.494 196.98C790.597 183.237 774.832 176.04 759.276 179.075L749.486 180.985C727.167 185.34 706.999 197.171 692.307 214.528L616.364 304.248C611.804 309.636 605.104 312.743 598.045 312.743L459.519 312.743C452.46 312.743 445.76 309.636 441.2 304.248L365.257 214.528C350.565 197.171 330.397 185.34 308.079 180.985L298.288 179.075Z" fill="#1F201D"/>
<path d="M464.452 570.139C469.67 565.38 472.176 558.335 471.136 551.35L471.002 550.451C470.075 544.227 466.628 538.657 461.471 535.051L448.26 525.814C442.467 521.764 435.959 518.847 429.08 517.217L409.799 512.649C406.857 511.952 403.843 511.6 400.819 511.6H390.297C382.559 511.6 375.437 515.818 371.717 522.603C369.316 526.982 368.54 532.068 369.524 536.964L371.127 544.939C372.28 550.676 374.579 556.121 377.887 560.949L378.963 562.518C382.986 568.39 388.155 573.388 394.16 577.211L397.005 579.023C402.529 582.541 408.685 584.95 415.13 586.116C426.18 588.115 437.668 586.326 447.616 581.117L461.446 572.426C462.514 571.754 463.52 570.989 464.452 570.139Z" fill="#726A50"/>
<path d="M609.148 572.539C603.93 567.78 601.424 560.735 602.464 553.75L602.598 552.851C603.525 546.627 606.972 541.057 612.13 537.451L625.34 528.214C631.133 524.164 637.641 521.246 644.52 519.617L663.801 515.049C666.743 514.352 669.757 514 672.781 514H683.303C691.041 514 698.164 518.218 701.883 525.003C704.284 529.382 705.06 534.468 704.076 539.364L702.473 547.339C701.32 553.076 699.021 558.521 695.713 563.349L694.637 564.918C690.614 570.79 685.445 575.788 679.441 579.611L676.595 581.423C671.071 584.941 664.915 587.35 658.47 588.516C647.42 590.515 635.933 588.726 625.985 583.517L612.155 574.826C611.086 574.154 610.08 573.389 609.148 572.539Z" fill="#726A50"/>
<path d="M417.878 516.4C409.757 516.4 402.223 520.634 398 527.572L397.328 528.675C394.89 532.681 393.6 537.281 393.6 541.97V548.043C393.6 554.896 396.483 561.432 401.544 566.053C408.009 571.956 417.143 573.941 425.475 571.253L426.244 571.005C432.983 568.831 438.531 563.981 441.586 557.594L441.965 556.8C444.335 551.844 445.185 546.298 444.409 540.86L444.348 540.434C443.12 531.837 437.971 524.297 430.41 520.023L429.329 519.412C425.836 517.438 421.891 516.4 417.878 516.4Z" fill="#171C1D"/>
<path d="M654.929 518C663.346 518 671.171 522.328 675.644 529.458L676.049 530.104C678.631 534.218 680 538.976 680 543.833V549.163C680 556.309 676.938 563.113 671.588 567.851C665.038 573.653 655.929 575.602 647.578 572.989L646.497 572.651C639.456 570.447 633.624 565.455 630.362 558.837L630.22 558.549C627.732 553.503 626.844 547.787 627.663 542.222C628.94 533.548 634.216 525.923 641.903 521.708L643.172 521.012C646.775 519.036 650.819 518 654.929 518Z" fill="#171C1D"/>
<path d="M499.2 665.471C499.2 664.299 499.991 663.276 501.125 662.982L517.311 658.779C521.298 657.743 525.483 657.743 529.47 658.779L547.581 663.481C552.747 665.494 558.498 665.387 563.586 663.185L567.671 661.418C569.326 660.701 571.04 660.126 572.793 659.699L580.627 657.792C582.243 657.399 583.901 657.2 585.565 657.2H590.579C591.977 657.2 593.336 657.667 594.439 658.526C597.667 661.041 597.667 665.922 594.439 668.437L593.892 668.863C593.13 669.456 592.251 669.881 591.313 670.109L588.266 670.851C584.848 671.683 581.688 673.344 579.064 675.686L578.404 676.274C575.135 679.192 572.833 683.037 571.804 687.297L571.091 690.243C570.485 692.752 569.101 695.005 567.136 696.679C564.923 698.565 562.111 699.6 559.205 699.6H548.648C547.938 699.6 547.229 699.543 546.527 699.429L540.608 698.468C536.479 697.798 533.72 693.85 534.511 689.742C535.097 686.7 533.73 683.613 531.083 682.002L529.642 681.125C529.238 680.879 528.817 680.663 528.381 680.477L518.461 676.251C516.925 675.597 515.273 675.259 513.603 675.259C510.559 675.259 507.621 674.139 505.35 672.111L500.059 667.389C499.512 666.901 499.2 666.203 499.2 665.471Z" fill="#2C2A26"/>
<g filter="url(#filter0_d_2229_7)">
<path d="M136.012 819.314C129.377 807.773 125.357 796.501 123.952 785.497C122.632 774.641 123.591 764.837 126.828 756.086L157.847 766.896C155.897 774.119 155.472 781.254 156.57 788.301C157.816 795.262 159.928 801.332 162.905 806.51C164.096 808.582 165.381 810.304 166.761 811.676C168.14 813.048 169.498 814.04 170.833 814.65C172.401 815.323 173.873 815.658 175.249 815.654C176.773 815.566 178.275 815.096 179.754 814.245C182.713 812.544 184.241 809.894 184.338 806.295C184.312 804.538 183.923 801.808 183.173 798.106C182.422 794.403 181.309 789.728 179.834 784.08C177.611 776.105 176.195 768.848 175.585 762.308C175.208 755.832 175.711 750.03 177.095 744.904C178.501 740.158 180.585 735.909 183.348 732.154C186.26 728.315 190.083 725.035 194.817 722.313C200.292 719.165 205.971 717.573 211.856 717.536C217.826 717.648 223.672 718.913 229.394 721.332C235.201 723.9 240.534 727.527 245.394 732.213C250.487 736.963 254.777 742.371 258.265 748.437C262.008 754.947 264.841 761.587 266.764 768.355C268.687 775.124 269.763 781.79 269.992 788.351C270.306 795.061 269.762 801.477 268.359 807.598L236.779 800.949C237.764 796.84 238.239 792.531 238.206 788.022C238.406 783.576 238.077 779.238 237.219 775.006C236.361 770.775 235.082 767.179 233.38 764.22C232.104 762.001 230.734 760.131 229.269 758.611C228.038 757.153 226.638 756.088 225.07 755.415C223.649 754.656 222.177 754.322 220.653 754.41C219.277 754.414 217.85 754.841 216.37 755.692C214.89 756.542 213.698 757.72 212.791 759.226C211.97 760.879 211.541 762.701 211.504 764.691C211.467 766.681 211.792 769.643 212.48 773.579C213.316 777.429 214.536 782.634 216.141 789.192C218.215 797.252 219.515 804.477 220.04 810.869C220.565 817.26 220.05 822.871 218.497 827.702C217.342 831.515 215.404 834.992 212.682 838.132C210.107 841.187 206.896 843.821 203.049 846.032C195.504 850.371 187.538 852.096 179.153 851.207C171.001 850.382 163.097 847.249 155.441 841.808C147.932 836.281 141.456 828.783 136.012 819.314ZM207.183 912.822L323.486 788.503L353.398 816.486L237.094 940.805L207.183 912.822ZM257.993 823.286L282.478 797.114L349.217 859.55L324.733 885.723L257.993 823.286ZM344.009 1007.13C334.755 1003.16 327.676 997.796 322.771 991.049C318.091 984.212 315.562 976.255 315.185 967.179C314.965 958.17 317.11 948.412 321.619 937.904L354.729 860.74L392.606 876.992L361.716 948.981C359.562 954 358.496 958.649 358.516 962.929C358.537 967.21 359.678 971.042 361.94 974.427C364.269 977.655 367.629 980.211 372.021 982.096C375.314 983.509 378.53 984.239 381.667 984.285C384.961 984.398 387.953 983.918 390.643 982.843C393.556 981.679 396.101 980.078 398.275 978.04C400.517 975.845 402.311 973.179 403.657 970.042L435.658 895.466L473.534 911.718L419.931 1036.64L384.407 1021.4L393.763 995.047L402.032 995.252C397.593 1000.4 392.168 1004.39 385.758 1007.21C379.415 1009.88 372.579 1011.31 365.251 1011.51C357.99 1011.55 350.909 1010.09 344.009 1007.13ZM543.005 1051.56C531.233 1051.88 520.661 1049.17 511.29 1043.44C502.085 1037.54 494.697 1029.37 489.127 1018.93C483.553 1008.33 480.585 996.198 480.222 982.55C479.86 968.901 482.183 956.718 487.191 946C492.194 935.111 499.221 926.474 508.27 920.087C517.32 913.701 527.816 910.349 539.758 910.032C545.9 909.869 551.811 910.651 557.491 912.378C563.171 914.105 568.357 916.528 573.049 919.648C577.742 922.767 581.595 926.421 584.608 930.609C587.617 934.626 589.437 938.846 590.066 943.268L580.403 945.83L578.079 858.309L619.28 857.214L624.309 1046.59L586.179 1047.6L583.053 1016.7L591.276 1017.76C590.878 1022.04 589.28 1026.18 586.484 1030.18C583.859 1034.17 580.369 1037.77 576.015 1040.96C571.656 1043.97 566.599 1046.41 560.844 1048.27C555.263 1050.3 549.317 1051.4 543.005 1051.56ZM552.593 1017.25C558.906 1017.08 564.324 1015.4 568.849 1012.21C573.374 1009.01 576.758 1004.66 579.001 999.134C581.416 993.606 582.525 987.175 582.33 979.838C582.131 972.332 580.679 965.883 577.975 960.491C575.442 955.095 571.831 950.923 567.143 947.974C562.455 945.026 556.955 943.635 550.643 943.803C544.33 943.971 538.912 945.651 534.387 948.844C530.033 952.033 526.648 956.391 524.234 961.918C521.82 967.446 520.713 973.963 520.912 981.469C521.107 988.806 522.556 995.169 525.26 1000.56C527.965 1005.95 531.575 1010.12 536.093 1013.08C540.78 1016.03 546.281 1017.42 552.593 1017.25ZM687.132 1033.7L640.358 906.064L678.817 891.97L725.591 1019.61L687.132 1033.7ZM650.339 873.778C643.128 876.421 636.822 876.823 631.423 874.984C626.125 872.927 622.301 868.694 619.952 862.284C617.838 856.515 618.189 851.024 621.005 845.812C623.82 840.599 628.753 836.701 635.804 834.117C643.015 831.475 649.27 831.182 654.568 833.239C659.807 835.136 663.572 839.21 665.862 845.459C668.035 851.388 667.714 856.959 664.898 862.172C662.242 867.325 657.389 871.194 650.339 873.778ZM835.353 949.566C824.264 958.38 812.465 963.832 799.958 965.924C787.584 967.91 775.567 966.778 763.906 962.529C752.379 958.174 742.368 950.652 733.874 939.963C725.379 929.274 720.312 917.823 718.672 905.61C717.166 893.291 718.777 881.329 723.506 869.723C728.368 858.011 736.344 847.749 747.434 838.935C758.524 830.122 770.255 824.723 782.629 822.737C795.137 820.645 807.154 821.777 818.681 826.132C830.208 830.487 840.219 838.009 848.713 848.698C857.208 859.387 862.275 870.838 863.915 883.051C865.555 895.264 863.943 907.226 859.081 918.938C854.352 930.544 846.443 940.753 835.353 949.566ZM813.374 921.909C818.184 918.086 821.504 913.486 823.333 908.108C825.163 902.729 825.501 897.12 824.347 891.279C823.193 885.438 820.426 879.898 816.045 874.66C811.931 869.209 807.16 865.263 801.73 862.82C796.195 860.243 790.601 859.239 784.948 859.807C779.296 860.375 774.064 862.57 769.254 866.393C764.444 870.215 761.058 874.869 759.094 880.353C757.264 885.731 756.979 891.408 758.239 897.382C759.393 903.223 762.161 908.763 766.542 914.001C770.655 919.452 775.427 923.399 780.857 925.842C786.286 928.285 791.827 929.222 797.479 928.654C803.265 927.98 808.564 925.731 813.374 921.909ZM952.899 817.729C946.264 829.27 938.545 838.415 929.743 845.166C921.025 851.769 912.07 855.873 902.879 857.479L896.613 825.233C903.837 823.284 910.217 820.062 915.754 815.567C921.143 810.988 925.326 806.109 928.303 800.93C929.494 798.859 930.335 796.882 930.827 794.999C931.319 793.117 931.493 791.445 931.349 789.984C931.141 788.29 930.69 786.849 929.995 785.662C929.151 784.389 927.99 783.328 926.51 782.477C923.551 780.776 920.492 780.789 917.333 782.517C915.828 783.423 913.664 785.132 910.842 787.644C908.02 790.155 904.54 793.469 900.401 797.586C894.628 803.52 889.069 808.395 883.724 812.212C878.317 815.797 873.05 818.281 867.923 819.665C863.115 820.837 858.393 821.174 853.759 820.675C848.976 820.091 844.217 818.438 839.483 815.716C834.008 812.568 829.775 808.461 826.782 803.394C823.875 798.179 822.027 792.49 821.239 786.328C820.536 780.018 820.987 773.584 822.591 767.026C824.133 760.235 826.648 753.806 830.136 747.74C833.879 741.23 838.191 735.441 843.073 730.373C847.956 725.306 853.174 721.022 858.73 717.523C864.37 713.875 870.188 711.118 876.184 709.249L886.328 739.886C882.281 741.103 878.318 742.86 874.438 745.157C870.495 747.222 866.911 749.689 863.686 752.559C860.461 755.43 857.998 758.345 856.296 761.304C855.02 763.523 854.094 765.648 853.517 767.679C852.877 769.476 852.661 771.222 852.868 772.916C852.928 774.525 853.379 775.966 854.222 777.238C854.918 778.425 856.005 779.444 857.485 780.295C858.964 781.146 860.583 781.584 862.34 781.61C864.182 781.488 865.972 780.942 867.71 779.973C869.449 779.004 871.845 777.232 874.9 774.657C877.807 771.998 881.691 768.324 886.551 763.638C892.472 757.79 898.063 753.031 903.322 749.361C908.582 745.692 913.69 743.313 918.646 742.226C922.522 741.304 926.502 741.23 930.586 742.003C934.521 742.691 938.413 744.14 942.259 746.352C949.805 750.69 955.304 756.706 958.755 764.399C962.144 771.86 963.413 780.267 962.563 789.621C961.565 798.891 958.343 808.26 952.899 817.729Z" fill="#F5F5F5"/>
</g>
<g filter="url(#filter1_d_2229_7)">
<path d="M293.777 202.715C281.341 207.462 269.578 209.668 258.49 209.333C247.561 208.938 238.028 206.457 229.891 201.89L245.423 172.945C252.252 176.001 259.232 177.538 266.364 177.556C273.434 177.415 279.76 176.279 285.34 174.149C287.573 173.297 289.474 172.297 291.046 171.149C292.617 170.002 293.809 168.816 294.62 167.593C295.531 166.149 296.092 164.748 296.304 163.388C296.455 161.869 296.226 160.312 295.617 158.718C294.4 155.529 292.022 153.605 288.482 152.947C286.743 152.697 283.986 152.654 280.212 152.816C276.437 152.978 271.645 153.345 265.836 153.919C257.611 154.866 250.222 155.129 243.668 154.708C237.212 154.066 231.561 152.661 226.714 150.492C222.247 148.361 218.376 145.637 215.1 142.32C211.764 138.844 209.122 134.555 207.175 129.453C204.923 123.553 204.239 117.695 205.124 111.877C206.168 105.998 208.333 100.422 211.618 95.1491C215.062 89.8154 219.479 85.1153 224.869 81.0487C230.357 76.7618 236.37 73.3707 242.907 70.8755C249.923 68.1976 256.924 66.4387 263.91 65.5988C270.897 64.7589 277.648 64.7393 284.165 65.5401C290.841 66.28 297.092 67.8214 302.919 70.1644L291.41 100.315C287.505 98.6996 283.324 97.5555 278.865 96.8825C274.505 95.9892 270.169 95.6351 265.855 95.8201C261.541 96.0052 257.79 96.7063 254.601 97.9235C252.209 98.8364 250.148 99.8972 248.417 101.106C246.785 102.094 245.514 103.31 244.604 104.754C243.632 106.038 243.071 107.439 242.92 108.958C242.709 110.318 242.907 111.795 243.516 113.389C244.124 114.984 245.101 116.347 246.446 117.477C247.95 118.547 249.682 119.256 251.642 119.604C253.602 119.952 256.579 120.095 260.573 120.031C264.507 119.808 269.838 119.418 276.567 118.859C284.852 118.071 292.192 117.918 298.587 118.4C304.982 118.882 310.443 120.268 314.971 122.559C318.557 124.296 321.688 126.754 324.363 129.935C326.977 132.956 329.076 136.539 330.658 140.685C333.762 148.816 334.219 156.954 332.03 165.097C329.939 173.019 325.607 180.335 319.034 187.046C312.401 193.597 303.982 198.819 293.777 202.715ZM348.139 181.028L331.477 46.117L370.095 41.3475L374.378 65.5813L369.074 66.4943C370.563 61.8394 372.622 57.6299 375.253 53.8658C378.052 50.0807 381.264 46.8467 384.888 44.1636C388.66 41.2902 392.59 38.9992 396.678 37.2906C400.936 35.561 405.267 34.4243 409.67 33.8804C416.276 33.0646 422.415 33.3382 428.086 34.7014C433.757 36.0645 438.908 38.7817 443.538 42.8529C448.147 46.7547 452.107 52.3702 455.42 59.6995L449.006 59.9758L450.536 55.6597C452.236 51.3226 454.581 47.3358 457.571 43.6992C460.71 39.8723 464.26 36.5964 468.223 33.8715C472.164 30.9772 476.349 28.6548 480.776 26.9043C485.202 25.1538 489.533 24.0171 493.767 23.4942C504.438 22.1763 513.592 23.1953 521.229 26.5512C528.845 29.7377 534.944 35.2611 539.526 43.1214C544.278 50.9608 547.386 60.8088 548.85 72.6654L559.016 154.984L518.111 160.036L508.353 81.0202C507.683 75.6001 506.367 71.2056 504.403 67.8369C502.439 64.4682 499.828 62.1252 496.57 60.808C493.461 59.3004 489.704 58.8186 485.3 59.3625C481.743 59.8018 478.513 60.8025 475.611 62.3647C472.878 63.906 470.536 65.8289 468.585 68.1334C466.804 70.417 465.487 72.987 464.636 75.8435C463.785 78.7001 463.569 81.8221 463.988 85.2097L473.903 165.496L432.998 170.548L423.208 91.2779C422.58 86.1965 421.285 81.9715 419.321 78.6028C417.357 75.2341 414.736 72.8064 411.457 71.3197C408.178 69.8331 404.506 69.3408 400.441 69.8429C396.884 70.2822 393.654 71.2829 390.752 72.8451C388.019 74.3864 385.677 76.3093 383.726 78.6138C381.944 80.8974 380.628 83.4674 379.777 86.3239C378.926 89.1804 378.699 92.2178 379.097 95.436L389.044 175.976L348.139 181.028ZM633.649 165.406C619.582 163.741 607.401 159.206 597.107 151.801C586.982 144.416 579.321 135.088 574.124 123.818C569.097 112.568 567.385 100.164 568.99 86.6048C570.594 73.0461 575.154 61.3837 582.668 51.6178C590.352 41.872 599.979 34.5902 611.548 29.7724C623.286 24.9747 636.189 23.4082 650.256 25.0729C664.323 26.7376 676.419 31.2625 686.544 38.6476C696.839 46.0527 704.5 55.3803 709.527 66.6304C714.554 77.8805 716.266 90.2849 714.661 103.844C713.057 117.402 708.497 129.065 700.983 138.831C693.468 148.597 683.842 155.878 672.103 160.676C660.534 165.494 647.716 167.07 633.649 165.406ZM637.801 130.322C643.902 131.045 649.506 130.161 654.613 127.672C659.719 125.183 663.939 121.472 667.273 116.539C670.606 111.605 672.59 105.739 673.222 98.9398C674.194 92.1805 673.635 86.0133 671.545 80.4384C669.475 74.694 666.248 70.0157 661.863 66.4034C657.479 62.7911 652.236 60.6239 646.134 59.9018C640.033 59.1798 634.344 60.0533 629.068 62.5224C623.962 65.0115 619.731 68.8073 616.378 73.9099C613.044 78.843 611.061 84.7093 610.428 91.5087C609.457 98.268 610.016 104.435 612.106 110.01C614.196 115.585 617.433 120.179 621.818 123.791C626.372 127.423 631.699 129.6 637.801 130.322ZM752.778 250.09C742.297 246.455 732.347 241.289 722.928 234.591C713.671 227.949 706.656 221.091 701.883 214.017L724.821 191.624C727.425 195.056 730.462 198.277 733.934 201.287C737.512 204.514 741.39 207.395 745.57 209.928C749.749 212.461 754.177 214.538 758.853 216.159C767.077 219.011 774.188 220.122 780.187 219.492C786.185 218.863 791.341 216.496 795.654 212.392C799.912 208.449 803.326 202.769 805.898 195.352L813.363 173.825L820.441 177.634C817.467 182.564 812.968 186.423 806.944 189.211C801.08 192.055 794.448 193.73 787.048 194.234C779.704 194.578 772.403 193.492 765.147 190.976C753.537 186.95 744.059 180.683 736.713 172.175C729.584 163.561 725.009 153.575 722.986 142.216C721.181 130.752 722.459 118.732 726.82 106.154C731.293 93.2544 737.815 82.781 746.386 74.734C755.012 66.5259 764.819 61.1655 775.806 58.6529C786.848 55.979 798.013 56.599 809.301 60.5129C814.138 62.1902 818.538 64.3481 822.5 66.9865C826.624 69.6807 830.205 72.6384 833.242 75.8593C836.497 78.9749 839.129 82.3259 841.136 85.9123C843.362 89.3934 844.858 92.8927 845.625 96.4102C846.554 99.9836 846.809 103.414 846.392 106.701L837.739 105.869L849.255 77.3472L886.019 90.0952L845.091 208.129C841.457 218.61 836.63 227.323 830.609 234.267C824.694 241.428 817.694 246.768 809.61 250.287C801.631 254.023 792.865 255.861 783.312 255.8C773.76 255.739 763.582 253.836 752.778 250.09ZM783.77 163.835C790.059 166.015 795.936 166.518 801.402 165.342C807.084 164.061 812.001 161.341 816.153 157.181C820.467 153.077 823.797 147.638 826.146 140.866C828.494 134.094 829.245 127.761 828.398 121.867C827.769 115.869 825.591 110.688 821.865 106.325C818.357 101.857 813.458 98.5332 807.17 96.3526C801.042 94.2279 795.218 93.8341 789.696 95.171C784.231 96.3467 779.314 99.0672 774.944 103.333C770.792 107.493 767.542 112.959 765.194 119.731C762.846 126.504 762.014 132.808 762.7 138.646C763.546 144.539 765.724 149.72 769.233 154.188C772.797 158.495 777.643 161.71 783.77 163.835Z" fill="#F5F5F5"/>
</g>
<path d="M77.4597 493.843C79.2468 489.969 84.7532 489.969 86.5403 493.843L94.9346 512.042C95.6629 513.621 97.1593 514.708 98.8862 514.913L118.788 517.273C123.025 517.775 124.727 523.012 121.594 525.909L106.88 539.516C105.603 540.697 105.032 542.456 105.371 544.162L109.277 563.819C110.108 568.004 105.653 571.24 101.93 569.156L84.4422 559.367C82.9248 558.518 81.0752 558.518 79.5578 559.367L62.0697 569.156C58.3466 571.24 53.8918 568.004 54.7233 563.819L58.6292 544.162C58.9681 542.456 58.3965 540.697 57.1198 539.516L42.4057 525.909C39.2732 523.012 40.9748 517.775 45.2118 517.273L65.1138 514.913C66.8407 514.708 68.3371 513.621 69.0654 512.042L77.4597 493.843Z" fill="#726A50"/>
<path d="M1001.46 493.843C1003.25 489.969 1008.75 489.969 1010.54 493.843L1018.93 512.042C1019.66 513.621 1021.16 514.708 1022.89 514.913L1042.79 517.273C1047.03 517.775 1048.73 523.012 1045.59 525.909L1030.88 539.516C1029.6 540.697 1029.03 542.456 1029.37 544.162L1033.28 563.819C1034.11 568.004 1029.65 571.24 1025.93 569.156L1008.44 559.367C1006.92 558.518 1005.08 558.518 1003.56 559.367L986.07 569.156C982.347 571.24 977.892 568.004 978.723 563.819L982.629 544.162C982.968 542.456 982.397 540.697 981.12 539.516L966.406 525.909C963.273 523.012 964.975 517.775 969.212 517.273L989.114 514.913C990.841 514.708 992.337 513.621 993.065 512.042L1001.46 493.843Z" fill="#726A50"/>
</g>
<defs>
<filter id="filter0_d_2229_7" x="106.41" y="697.838" width="874.689" height="379.746" filterUnits="userSpaceOnUse" color-interpolation-filters="sRGB">
<feFlood flood-opacity="0" result="BackgroundImageFix"/>
<feColorMatrix in="SourceAlpha" type="matrix" values="0 0 0 0 0 0 0 0 0 0 0 0 0 0 0 0 0 0 127 0" result="hardAlpha"/>
<feOffset dy="24"/>
<feComposite in2="hardAlpha" operator="out"/>
<feColorMatrix type="matrix" values="0 0 0 0 0.447059 0 0 0 0 0.415686 0 0 0 0 0.313726 0 0 0 1 0"/>
<feBlend mode="normal" in2="BackgroundImageFix" result="effect1_dropShadow_2229_7"/>
<feBlend mode="normal" in="SourceGraphic" in2="effect1_dropShadow_2229_7" result="shape"/>
</filter>
<filter id="filter1_d_2229_7" x="187.898" y="16.2324" width="699.044" height="281.803" filterUnits="userSpaceOnUse" color-interpolation-filters="sRGB">
<feFlood flood-opacity="0" result="BackgroundImageFix"/>
<feColorMatrix in="SourceAlpha" type="matrix" values="0 0 0 0 0 0 0 0 0 0 0 0 0 0 0 0 0 0 127 0" result="hardAlpha"/>
<feOffset dy="24"/>
<feComposite in2="hardAlpha" operator="out"/>
<feColorMatrix type="matrix" values="0 0 0 0 0.447059 0 0 0 0 0.415686 0 0 0 0 0.313726 0 0 0 1 0"/>
<feBlend mode="normal" in2="BackgroundImageFix" result="effect1_dropShadow_2229_7"/>
<feBlend mode="normal" in="SourceGraphic" in2="effect1_dropShadow_2229_7" result="shape"/>
</filter>
<clipPath id="clip0_2229_7">
<rect width="1088" height="1088" fill="white"/>
</clipPath>
</defs>
</svg>
