<svg width="83" height="79" viewBox="0 0 83 79" fill="none" xmlns="http://www.w3.org/2000/svg">
<path d="M36.6653 2.90576C38.4523 -0.968594 43.9588 -0.968592 45.7459 2.90577L54.1401 21.1046C54.8685 22.6836 56.3649 23.7708 58.0917 23.9756L77.9938 26.3353C82.2308 26.8376 83.9324 32.0746 80.7999 34.9714L66.0857 48.5786C64.8091 49.7592 64.2375 51.5184 64.5764 53.224L68.4822 72.8812C69.3138 77.066 64.859 80.3026 61.1359 78.2186L43.6478 68.4295C42.1304 67.5801 40.2807 67.5801 38.7634 68.4295L21.2752 78.2186C17.5522 80.3026 13.0974 77.066 13.9289 72.8812L17.8348 53.224C18.1737 51.5184 17.6021 49.7592 16.3254 48.5786L1.61127 34.9714C-1.52123 32.0746 0.180357 26.8376 4.41733 26.3353L24.3194 23.9756C26.0462 23.7708 27.5426 22.6836 28.271 21.1046L36.6653 2.90576Z" fill="#726A50"/>
</svg>
